<?xml version="1.0" encoding="utf-8"?>
<!-- Generator: Adobe Illustrator 19.0.0, SVG Export Plug-In . SVG Version: 6.00 Build 0)  -->
<svg version="1.1" id="图层_1" xmlns="http://www.w3.org/2000/svg" xmlns:xlink="http://www.w3.org/1999/xlink" x="0px" y="0px"
	 viewBox="28 -28 72 73" style="enable-background:new 28 -28 72 73;" xml:space="preserve">
<style type="text/css">
	.st0{fill:#CCCCCC;}
</style>
<circle class="st0" cx="59.7" cy="-3.1" r="1.1"/>
<path class="st0" d="M88-28H40c-6.6,0-12,5.4-12,12v49c0,6.6,5.4,12,12,12h48c6.6,0,12-5.4,12-12v-49C100-22.6,94.6-28,88-28z
	 M52.5,13.5c0,1.3-1,2.3-2.3,2.3s-2.3-1-2.3-2.3v-9c0-1.3,1-2.3,2.3-2.3s2.3,1,2.3,2.3V13.5z M59.2-6.3L57.3-9
	c-0.1-0.2-0.1-0.4,0.1-0.5c0.1-0.1,0.4-0.1,0.5,0.1l1.9,2.8C61-7,62.5-7.3,64-7.3s2.9,0.3,4.2,0.8l1.9-2.8c0.1-0.2,0.3-0.2,0.5-0.1
	c0.1,0.1,0.2,0.3,0.1,0.5l-1.9,2.7c3,1.4,5,4,5.3,7.1H53.9C54.1-2.3,56.2-4.9,59.2-6.3z M74.1,18.7c0,1-0.8,1.8-1.8,1.8h-2v5
	c0,1.3-1,2.3-2.3,2.3s-2.3-1-2.3-2.3v-5h-3.5v5c0,1.3-1,2.3-2.3,2.3s-2.3-1-2.3-2.3v-5h-2c-1,0-1.8-0.8-1.8-1.8V2.3l0,0H74v16.4
	H74.1z M79.9,13.5c0,1.3-1,2.3-2.3,2.3s-2.3-1-2.3-2.3v-9c0-1.3,1-2.3,2.3-2.3s2.3,1,2.3,2.3V13.5z"/>
<circle class="st0" cx="68.4" cy="-3.1" r="1.1"/>
</svg>
