<?xml version="1.0" encoding="utf-8"?>
<!-- Generator: Adobe Illustrator 19.0.0, SVG Export Plug-In . SVG Version: 6.00 Build 0)  -->
<svg version="1.1" id="图层_1" xmlns="http://www.w3.org/2000/svg" xmlns:xlink="http://www.w3.org/1999/xlink" x="0px" y="0px"
	 viewBox="28 -28 72 73" style="enable-background:new 28 -28 72 73;" xml:space="preserve">
<style type="text/css">
	.st0{fill:#D8D8D8;}
</style>
<path class="st0" d="M74,8.5v0.1c0,5.1,4.1,7.1,4.8,7.5c0-0.2,0.1-0.3,0.1-0.3S74.2,14,74,8.5z"/>
<path class="st0" d="M58.3-1.9c2.3,0,4.6,1.6,6,1.6c1.4,0,4.1-2,7-1.7c1.2,0,4.4,0.5,6.6,3.5C78,1.5,78,1.4,78,1.4
	c-2.2-3.1-5.5-3.5-6.7-3.6c-2.8-0.3-5.5,1.7-7,1.7c-1.4,0-3.7-1.6-6-1.6c-3.1,0-6,1.8-7.6,4.6c-1,1.8-1.5,3.9-1.5,6
	c0.1-2.1,0.5-4.1,1.5-5.8C52.3-0.1,55.2-1.9,58.3-1.9z"/>
<path class="st0" d="M88-28H40c-6.6,0-12,5.4-12,12v49c0,6.6,5.4,12,12,12h48c6.6,0,12-5.4,12-12v-49C100-22.6,94.6-28,88-28z
	 M65.9-8.2c1.3-1.6,3.6-2.7,5.4-2.8c0.2,2.2-0.6,4.3-1.9,5.9S66-2.3,64-2.5C63.7-4.6,64.7-6.8,65.9-8.2z M78.9,16.2
	c0,0.1-0.7,2.6-2.5,5.2c-1.5,2.2-3.1,4.5-5.6,4.5c-2.4,0-3.2-1.5-6-1.5c-2.8,0-3.7,1.4-6,1.5c-2.4,0.1-4.3-2.5-5.8-4.7
	c-2.1-3.2-3.9-8.1-3.8-12.7c0-2.1,0.5-4.2,1.5-6c1.6-2.8,4.5-4.6,7.6-4.6c2.3,0,4.6,1.6,6,1.6c1.5,0,4.2-2,7-1.7
	c1.2,0.1,4.5,0.5,6.7,3.6c0,0-0.1,0-0.1,0.1L78,1.6c-0.2,0.1-3.9,2.4-4,6.9c0.1,5.5,4.9,7.3,4.9,7.3s-0.1,0.2-0.1,0.3
	C78.9,16.2,78.9,16.2,78.9,16.2z"/>
<path class="st0" d="M74,8.4C74,8.4,74,8.5,74,8.4c0.1-4.4,3.8-6.7,4-6.8l-0.1-0.1C77.3,1.9,74,4.1,74,8.4z"/>
<path class="st0" d="M70.8,25.7c-2.5,0-3.2-1.5-6-1.5c-2.8,0-3.7,1.4-6,1.5c-2.4,0.1-4.2-2.4-5.8-4.7c-2.1-3.1-3.9-8-3.8-12.5
	c-0.1,4.6,1.7,9.5,3.8,12.7c1.5,2.2,3.4,4.8,5.8,4.7c2.3-0.1,3.2-1.5,6-1.5c2.8,0,3.6,1.5,6,1.5c2.5,0,4.1-2.3,5.6-4.5
	c1.8-2.6,2.5-5.1,2.5-5.2c0,0,0,0-0.1-0.1c-0.3,0.8-1,3-2.4,5.1C74.9,23.4,73.3,25.7,70.8,25.7z"/>
</svg>
